# xmcd CD database file
#
# Track frame offsets:
#	150
#	15456
#	32100
#	51849
#	72436
#	85033
#	105817
#	127597
#	139689
#	159184
#	179993
#	188769
#	206587
#	220137
#	256317
#	290035
#
# Disc length: 4236 seconds
#
# Revision: 1
# Processed by: cddbd v1.5.2PL0 Copyright (c) Steve Scherf et al.
# Submitted via: CDex 1.51
#
DISCID=dc108a10
DTITLE=diverse - Harmony of Jazz, Volume 1
DYEAR=1900
DGENRE=Jazz
TTITLE0=Love for Sale, Lia Roth
TTITLE1=Broken Winged, Lia Roth
TTITLE2=Nomad Dreams, Lia Roth
TTITLE3=Save your Love for me, Lia Roth
TTITLE4=Djangos Tiger, Hot Club D'Allemagne
TTITLE5=Amourex, Hot Club D'Allemagne
TTITLE6=Minor Funk, Hot Club D'Allemagne
TTITLE7=Charleston (J. P. Johnson), Hot Club D'Allemagne
TTITLE8=Bye bye black Bird, Ulla Bräuer-Red Sage
TTITLE9=Life is a Gift, Ulla Bräuer-Red Sage
TTITLE10=P. L. Bates, Ulla Bräuer-Red Sage
TTITLE11=Real Mother for Ya, Ulla Bräuer-Red Sage
TTITLE12=All for me, Leipzig Big Band-Frank Nowicky
TTITLE13=Panther, Leipzig Big Band-Frank Nowicky
TTITLE14=Pick up the Pieces, Leipzig Big Band-Frank Nowicky
TTITLE15=Have you Heard, Leipzig Big Band-Frank Nowicky
EXTD=
EXTT0=
EXTT1=
EXTT2=
EXTT3=
EXTT4=
EXTT5=
EXTT6=
EXTT7=
EXTT8=
EXTT9=
EXTT10=
EXTT11=
EXTT12=
EXTT13=
EXTT14=
EXTT15=
PLAYORDER=
